<svg version="1.1" id="Layer_1" xmlns="http://www.w3.org/2000/svg" xmlns:xlink="http://www.w3.org/1999/xlink" x="0px" y="0px"
	 width="100%" viewBox="0 0 225 225" enable-background="new 0 0 225 225" xml:space="preserve">
<path fill="#FEFEFE" opacity="1.000000" stroke="none" 
	d="
M151.000000,226.000000 
	C100.666672,226.000000 50.833340,226.000000 1.000007,226.000000 
	C1.000005,151.000000 1.000005,76.000015 1.000002,1.000017 
	C75.999992,1.000011 150.999985,1.000011 225.999969,1.000006 
	C225.999985,75.999985 225.999985,150.999969 226.000000,225.999969 
	C201.166672,226.000000 176.333328,226.000000 151.000000,226.000000 
M28.552681,106.032539 
	C29.134380,108.611702 29.716078,111.190857 30.488503,114.615662 
	C27.107792,117.294945 28.286869,121.337273 29.848433,125.576088 
	C30.566534,127.525368 30.829025,129.729721 30.860958,131.825073 
	C30.915211,135.384872 30.874876,138.769577 34.655113,140.800797 
	C35.336838,141.167114 35.936790,142.863190 35.667252,143.623840 
	C34.307789,147.460388 36.089539,150.092606 38.365776,152.871964 
	C39.995110,154.861435 41.382217,157.191574 42.294353,159.591339 
	C43.529934,162.842072 44.898148,165.505844 48.757854,166.209763 
	C49.581345,166.359955 50.120152,168.023788 50.807430,168.977829 
	C52.341904,171.107880 53.688732,173.419006 55.482399,175.303909 
	C57.390808,177.309387 59.971024,178.688370 61.815083,180.739105 
	C64.217621,183.410919 66.406372,185.850082 70.540031,185.156586 
	C71.344353,185.021652 72.380768,186.458847 73.354050,187.104706 
	C75.697403,188.659698 77.956528,190.398438 80.460449,191.636765 
	C82.476463,192.633804 85.038849,192.608887 86.937164,193.743088 
	C90.399223,195.811630 93.560509,198.005554 97.715240,195.363205 
	C98.262741,195.014984 99.775620,195.385010 100.302223,195.936890 
	C103.142967,198.913879 106.360954,199.246567 110.187065,198.257492 
	C112.186188,197.740723 114.523285,197.718689 116.528053,198.208542 
	C120.490913,199.176865 123.928436,199.105896 126.877533,195.833176 
	C127.338440,195.321686 128.861862,195.129135 129.471237,195.494415 
	C133.207535,197.733978 136.254303,196.036499 139.471756,194.248230 
	C141.280792,193.242767 143.321243,192.507996 145.347946,192.071808 
	C148.966934,191.292892 152.431030,190.595856 154.050674,186.574387 
	C154.351379,185.827713 155.897614,184.994156 156.701080,185.138077 
	C160.646118,185.844803 162.742218,183.508408 165.025604,180.937805 
	C166.740189,179.007568 168.803894,177.223999 171.043457,175.963943 
	C173.989868,174.306183 176.140640,172.508423 176.303741,168.817032 
	C176.345749,167.866608 177.569870,166.333496 178.458725,166.165176 
	C182.345642,165.429092 183.570572,162.563568 184.867996,159.431351 
	C185.793152,157.197845 187.044724,155.025131 188.522064,153.112137 
	C190.751724,150.224930 192.950607,147.553711 191.344025,143.504578 
	C191.064651,142.800491 191.760651,141.119797 192.475525,140.710999 
	C195.905380,138.749680 196.161148,135.702560 196.170181,132.254211 
	C196.176559,129.823425 196.389221,127.185905 197.346985,125.009041 
	C199.201477,120.794029 199.095612,117.106071 195.736572,113.639160 
	C199.203003,110.089653 199.360657,106.356049 197.282715,102.203346 
	C196.502899,100.644936 196.012512,98.682388 196.158051,96.969330 
	C196.578629,92.019020 195.800247,87.770638 190.686325,85.551620 
	C192.786713,80.939201 191.427628,77.627380 188.599716,74.390556 
	C186.916275,72.463707 185.521606,70.069382 184.713104,67.646309 
	C183.636368,64.419334 181.892075,62.336334 178.682373,61.150593 
	C177.637604,60.764622 176.975067,59.274452 176.199921,58.242584 
	C174.614456,56.132004 173.259659,53.809525 171.450790,51.917625 
	C170.005646,50.406155 167.677521,49.695465 166.360718,48.113697 
	C163.554901,44.743286 161.105911,41.182316 155.850159,42.194717 
	C155.324036,42.296059 154.238785,41.497898 154.024948,40.898781 
	C152.392838,36.326431 148.385971,35.946831 144.500092,35.158989 
	C142.933914,34.841454 141.371185,34.210495 139.971344,33.427982 
	C136.616592,31.552679 133.444748,29.488609 129.368027,31.863459 
	C128.689438,32.258751 127.102409,31.235201 125.996155,30.732979 
	C118.436195,27.300875 110.580666,29.796185 102.864288,29.605978 
	C102.210381,29.589861 101.594093,30.655703 100.853317,30.943048 
	C99.746445,31.372408 98.218712,32.161205 97.439018,31.741079 
	C93.948730,29.860407 91.158813,31.202667 88.137413,32.864376 
	C86.030388,34.023201 83.668335,34.890526 81.314522,35.387840 
	C77.829102,36.124237 74.549240,36.760597 73.088654,40.685253 
	C72.811378,41.430317 71.284912,42.289230 70.482773,42.162098 
	C66.579643,41.543488 64.359291,43.771954 62.087463,46.351494 
	C60.592384,48.049088 58.921638,49.821808 56.954380,50.825695 
	C52.904797,52.892197 50.199409,55.570694 50.723495,60.655758 
	C45.460350,61.307793 42.835300,64.373161 41.867210,69.238144 
	C41.591904,70.621651 40.771000,72.098892 39.767479,73.098732 
	C36.193047,76.660027 33.562836,80.404015 36.437431,85.875000 
	C31.210829,87.683563 30.917480,91.455032 30.786867,95.700104 
	C30.688251,98.905182 29.464163,102.075638 28.552681,106.032539 
z"/>
<path fill="#010101" opacity="1.000000" stroke="none" 
	d="
M28.646839,105.647018 
	C29.464163,102.075638 30.688251,98.905182 30.786867,95.700104 
	C30.917480,91.455032 31.210829,87.683563 36.437431,85.875000 
	C33.562836,80.404015 36.193047,76.660027 39.767479,73.098732 
	C40.771000,72.098892 41.591904,70.621651 41.867210,69.238144 
	C42.835300,64.373161 45.460350,61.307793 50.723495,60.655758 
	C50.199409,55.570694 52.904797,52.892197 56.954380,50.825695 
	C58.921638,49.821808 60.592384,48.049088 62.087463,46.351494 
	C64.359291,43.771954 66.579643,41.543488 70.482773,42.162098 
	C71.284912,42.289230 72.811378,41.430317 73.088654,40.685253 
	C74.549240,36.760597 77.829102,36.124237 81.314522,35.387840 
	C83.668335,34.890526 86.030388,34.023201 88.137413,32.864376 
	C91.158813,31.202667 93.948730,29.860407 97.439018,31.741079 
	C98.218712,32.161205 99.746445,31.372408 100.853317,30.943048 
	C101.594093,30.655703 102.210381,29.589861 102.864288,29.605978 
	C110.580666,29.796185 118.436195,27.300875 125.996155,30.732979 
	C127.102409,31.235201 128.689438,32.258751 129.368027,31.863459 
	C133.444748,29.488609 136.616592,31.552679 139.971344,33.427982 
	C141.371185,34.210495 142.933914,34.841454 144.500092,35.158989 
	C148.385971,35.946831 152.392838,36.326431 154.024948,40.898781 
	C154.238785,41.497898 155.324036,42.296059 155.850159,42.194717 
	C161.105911,41.182316 163.554901,44.743286 166.360718,48.113697 
	C167.677521,49.695465 170.005646,50.406155 171.450790,51.917625 
	C173.259659,53.809525 174.614456,56.132004 176.199921,58.242584 
	C176.975067,59.274452 177.637604,60.764622 178.682373,61.150593 
	C181.892075,62.336334 183.636368,64.419334 184.713104,67.646309 
	C185.521606,70.069382 186.916275,72.463707 188.599716,74.390556 
	C191.427628,77.627380 192.786713,80.939201 190.686325,85.551620 
	C195.800247,87.770638 196.578629,92.019020 196.158051,96.969330 
	C196.012512,98.682388 196.502899,100.644936 197.282715,102.203346 
	C199.360657,106.356049 199.203003,110.089653 195.736572,113.639160 
	C199.095612,117.106071 199.201477,120.794029 197.346985,125.009041 
	C196.389221,127.185905 196.176559,129.823425 196.170181,132.254211 
	C196.161148,135.702560 195.905380,138.749680 192.475525,140.710999 
	C191.760651,141.119797 191.064651,142.800491 191.344025,143.504578 
	C192.950607,147.553711 190.751724,150.224930 188.522064,153.112137 
	C187.044724,155.025131 185.793152,157.197845 184.867996,159.431351 
	C183.570572,162.563568 182.345642,165.429092 178.458725,166.165176 
	C177.569870,166.333496 176.345749,167.866608 176.303741,168.817032 
	C176.140640,172.508423 173.989868,174.306183 171.043457,175.963943 
	C168.803894,177.223999 166.740189,179.007568 165.025604,180.937805 
	C162.742218,183.508408 160.646118,185.844803 156.701080,185.138077 
	C155.897614,184.994156 154.351379,185.827713 154.050674,186.574387 
	C152.431030,190.595856 148.966934,191.292892 145.347946,192.071808 
	C143.321243,192.507996 141.280792,193.242767 139.471756,194.248230 
	C136.254303,196.036499 133.207535,197.733978 129.471237,195.494415 
	C128.861862,195.129135 127.338440,195.321686 126.877533,195.833176 
	C123.928436,199.105896 120.490913,199.176865 116.528053,198.208542 
	C114.523285,197.718689 112.186188,197.740723 110.187065,198.257492 
	C106.360954,199.246567 103.142967,198.913879 100.302223,195.936890 
	C99.775620,195.385010 98.262741,195.014984 97.715240,195.363205 
	C93.560509,198.005554 90.399223,195.811630 86.937164,193.743088 
	C85.038849,192.608887 82.476463,192.633804 80.460449,191.636765 
	C77.956528,190.398438 75.697403,188.659698 73.354050,187.104706 
	C72.380768,186.458847 71.344353,185.021652 70.540031,185.156586 
	C66.406372,185.850082 64.217621,183.410919 61.815083,180.739105 
	C59.971024,178.688370 57.390808,177.309387 55.482399,175.303909 
	C53.688732,173.419006 52.341904,171.107880 50.807430,168.977829 
	C50.120152,168.023788 49.581345,166.359955 48.757854,166.209763 
	C44.898148,165.505844 43.529934,162.842072 42.294353,159.591339 
	C41.382217,157.191574 39.995110,154.861435 38.365776,152.871964 
	C36.089539,150.092606 34.307789,147.460388 35.667252,143.623840 
	C35.936790,142.863190 35.336838,141.167114 34.655113,140.800797 
	C30.874876,138.769577 30.915211,135.384872 30.860958,131.825073 
	C30.829025,129.729721 30.566534,127.525368 29.848433,125.576088 
	C28.286869,121.337273 27.107792,117.294945 30.488503,114.615662 
	C29.716078,111.190857 29.134380,108.611702 28.646839,105.647018 
z"/>
</svg>